<?xml version="1.0" encoding="iso-8859-1"?>
<!-- Generator: Adobe Illustrator 19.0.0, SVG Export Plug-In . SVG Version: 6.00 Build 0)  -->
<svg version="1.1" id="Capa_1" xmlns="http://www.w3.org/2000/svg" xmlns:xlink="http://www.w3.org/1999/xlink" x="0px" y="0px"
	 viewBox="0 0 512.001 512.001" style="enable-background:new 0 0 512.001 512.001;" xml:space="preserve">
<g>
	<g>
		<path d="M502.486,446.9L385.212,168.331l-0.121-0.278c-5.853-13.154-18.94-21.654-33.338-21.654h-30.214
			c13.895-15.551,22.357-36.055,22.357-58.502C343.896,39.43,304.467,0,256,0s-87.896,39.43-87.896,87.896
			c0,22.447,8.462,42.952,22.357,58.502h-30.214c-14.398,0-27.485,8.5-33.338,21.656L9.515,446.9
			c-6.334,14.372-5.011,30.8,3.55,43.979c8.591,13.225,23.135,21.121,38.905,21.121h408.062c15.77,0,30.314-7.895,38.905-21.121
			C507.498,477.7,508.82,461.272,502.486,446.9z M256,29.996c31.926,0,57.9,25.974,57.9,57.9c0,31.927-25.975,57.901-57.9,57.901
			s-57.9-25.974-57.9-57.901C198.1,55.97,224.075,29.996,256,29.996z M473.782,474.54c-3.082,4.744-8.094,7.465-13.75,7.465H51.969
			c-5.656,0-10.669-2.721-13.75-7.465c-3.082-4.744-3.531-10.43-1.23-15.598l117.372-278.794c1.063-2.284,3.361-3.754,5.886-3.754
			h191.505c2.526,0,4.825,1.471,5.888,3.757l117.251,278.513l0.12,0.277C477.312,464.11,476.863,469.795,473.782,474.54z"/>
	</g>
</g>
<g>
	<g>
		<path d="M256.344,395.411l-46.456-70.752l38.146-47.735c1.135-1.419,1.705-3.197,1.705-5.328c0-3.41-1.778-6.639-5.328-9.696
			c-3.553-3.054-7.105-4.582-10.655-4.582c-3.127,0-5.684,1.352-7.672,4.049l-46.03,62.653v-58.178c0-2.841-1.353-4.971-4.049-6.393
			c-2.7-1.418-5.967-2.131-9.803-2.131c-3.837,0-7.105,0.713-9.803,2.131c-2.701,1.422-4.049,3.553-4.049,6.393V404.36
			c0,2.701,1.349,4.831,4.049,6.393c2.697,1.565,5.966,2.344,9.803,2.344c3.693,0,6.926-0.779,9.696-2.344
			c2.771-1.562,4.155-3.693,4.155-6.393v-41.769L191.56,348.1l40.064,60.735c2.131,3.553,5.327,5.327,9.59,5.327
			c4.118,0,7.918-1.455,11.401-4.368c3.48-2.911,5.221-6.073,5.221-9.483C257.836,398.467,257.336,396.832,256.344,395.411z"/>
	</g>
</g>
<g>
	<g>
		<path d="M356.502,331.265h-36.226c-2.558,0-4.618,1.103-6.181,3.304c-1.564,2.205-2.344,4.725-2.344,7.565
			c0,2.984,0.746,5.54,2.237,7.671c1.492,2.131,3.587,3.197,6.287,3.197h17.262v12.573c0,8.098-1.955,14.208-5.86,18.327
			c-3.91,4.122-9.414,6.18-16.516,6.18c-14.777,0-22.163-8.168-22.163-24.507v-59.457c0-16.335,7.459-24.507,22.376-24.507
			c8.098,0,13.708,1.955,16.835,5.86c3.124,3.91,4.901,8.987,5.328,15.237c0.14,5.827,4.758,8.738,13.852,8.738
			c4.827,0,8.344-0.923,10.549-2.771c2.201-1.845,3.304-5.327,3.304-10.442c0-12.499-4.725-22.446-14.172-29.834
			c-9.45-7.385-21.703-11.082-36.76-11.082c-14.635,0-26.463,3.943-35.482,11.828c-9.024,7.885-13.532,20.211-13.532,36.973v59.457
			c0,16.909,4.508,29.268,13.532,37.08c9.02,7.815,21.13,11.721,36.334,11.721c15.2,0,27.348-3.906,36.44-11.721
			c9.09-7.812,13.639-20.172,13.639-37.08v-25.36c0-2.414-0.783-4.508-2.345-6.286C361.332,332.154,359.201,331.265,356.502,331.265
			z"/>
	</g>
</g>
<g>
</g>
<g>
</g>
<g>
</g>
<g>
</g>
<g>
</g>
<g>
</g>
<g>
</g>
<g>
</g>
<g>
</g>
<g>
</g>
<g>
</g>
<g>
</g>
<g>
</g>
<g>
</g>
<g>
</g>
</svg>
